<svg width="300" height="60" viewBox="0 0 300 60" fill="none" xmlns="http://www.w3.org/2000/svg">
<rect x="123" width="177" height="60" fill="#D6EFFD"/>
<g clip-path="url(#clip0_0_258)">
<rect width="60" height="300" transform="translate(300) rotate(90)" fill="#D6EFFD"/>
<path d="M269.614 31.4062L264.58 36.4547L266.562 38.4375L275 30L266.562 21.5625L264.58 23.5453L269.614 28.5937L252.5 28.5937L252.5 31.4062L269.614 31.4062Z" fill="#03283C"/>
<path d="M153.324 36H160.78V34.976H154.508V24.8H153.324V36ZM169.725 31.792C169.725 29.264 168.013 27.52 165.645 27.52C163.277 27.52 161.533 29.296 161.533 31.792C161.533 34.288 163.325 36.08 165.949 36.08C167.277 36.08 168.445 35.6 169.197 34.704L168.557 33.968C167.917 34.704 167.005 35.072 165.981 35.072C164.141 35.072 162.797 33.904 162.669 32.144H169.709C169.709 32.016 169.725 31.888 169.725 31.792ZM165.645 28.496C167.293 28.496 168.493 29.648 168.637 31.296H162.669C162.813 29.648 164.013 28.496 165.645 28.496ZM174.747 27.52C173.419 27.52 172.171 27.936 171.323 28.656L171.835 29.504C172.523 28.896 173.547 28.512 174.635 28.512C176.203 28.512 177.019 29.296 177.019 30.736V31.248H174.347C171.931 31.248 171.099 32.336 171.099 33.632C171.099 35.088 172.267 36.08 174.171 36.08C175.563 36.08 176.555 35.552 177.067 34.688V36H178.155V30.784C178.155 28.608 176.923 27.52 174.747 27.52ZM174.347 35.184C173.003 35.184 172.219 34.576 172.219 33.6C172.219 32.736 172.747 32.096 174.379 32.096H177.019V33.472C176.571 34.576 175.627 35.184 174.347 35.184ZM182.328 29.232V27.584H181.24V36H182.376V31.712C182.376 29.728 183.448 28.608 185.208 28.608C185.288 28.608 185.384 28.624 185.48 28.624V27.52C183.928 27.52 182.856 28.112 182.328 29.232ZM191.825 27.52C190.369 27.52 189.233 28.112 188.625 29.136V27.584H187.537V36H188.673V31.584C188.673 29.664 189.809 28.544 191.617 28.544C193.217 28.544 194.145 29.456 194.145 31.232V36H195.281V31.12C195.281 28.704 193.873 27.52 191.825 27.52ZM213.449 24.8L208.633 33.104L203.769 24.8H202.793V36H203.929V27.088L208.329 34.576H208.889L213.289 27.04V36H214.425V24.8H213.449ZM221.274 36.08C223.738 36.08 225.546 34.288 225.546 31.792C225.546 29.296 223.738 27.52 221.274 27.52C218.81 27.52 216.986 29.296 216.986 31.792C216.986 34.288 218.81 36.08 221.274 36.08ZM221.274 35.072C219.482 35.072 218.138 33.76 218.138 31.792C218.138 29.824 219.482 28.512 221.274 28.512C223.066 28.512 224.394 29.824 224.394 31.792C224.394 33.76 223.066 35.072 221.274 35.072ZM228.953 29.232V27.584H227.865V36H229.001V31.712C229.001 29.728 230.073 28.608 231.833 28.608C231.913 28.608 232.009 28.624 232.105 28.624V27.52C230.553 27.52 229.481 28.112 228.953 29.232ZM241.428 31.792C241.428 29.264 239.716 27.52 237.348 27.52C234.98 27.52 233.236 29.296 233.236 31.792C233.236 34.288 235.028 36.08 237.652 36.08C238.98 36.08 240.148 35.6 240.9 34.704L240.26 33.968C239.62 34.704 238.708 35.072 237.684 35.072C235.844 35.072 234.5 33.904 234.372 32.144H241.412C241.412 32.016 241.428 31.888 241.428 31.792ZM237.348 28.496C238.996 28.496 240.196 29.648 240.34 31.296H234.372C234.516 29.648 235.716 28.496 237.348 28.496Z" fill="black"/>
</g>
<defs>
<clipPath id="clip0_0_258">
<rect width="60" height="300" fill="white" transform="translate(300) rotate(90)"/>
</clipPath>
</defs>
</svg>
